<?xml version="1.0" standalone="no"?>
<!DOCTYPE svg PUBLIC "-//W3C//DTD SVG 20010904//EN"
 "http://www.w3.org/TR/2001/REC-SVG-20010904/DTD/svg10.dtd">
<svg version="1.0" xmlns="http://www.w3.org/2000/svg"
 width="873.000000pt" height="939.000000pt" viewBox="0 0 873.000000 939.000000"
 preserveAspectRatio="xMidYMid meet">
<metadata>
Created by potrace 1.16, written by Peter Selinger 2001-2019
</metadata>
<g transform="translate(0.000000,939.000000) scale(0.100000,-0.100000)"
fill="#000000" stroke="none">
<path d="M4237 8832 c-45 -8 -84 -17 -87 -21 -3 -3 -18 -7 -35 -7 -72 -3 -165
-18 -165 -25 0 -5 -21 -9 -48 -9 -53 0 -169 -22 -198 -38 -10 -6 -47 -40 -81
-76 -34 -36 -66 -66 -70 -66 -14 -1 -118 -103 -148 -145 -15 -22 -37 -50 -49
-61 -12 -12 -34 -38 -51 -58 -16 -20 -42 -51 -57 -69 -15 -18 -28 -35 -28 -38
0 -3 -13 -19 -28 -35 -32 -33 -82 -51 -162 -58 -30 -2 -77 -10 -105 -16 -27
-7 -77 -16 -110 -21 -33 -4 -85 -13 -115 -19 -66 -13 -99 -17 -205 -25 -73 -5
-95 -9 -175 -30 -24 -7 -66 -25 -153 -67 -22 -10 -43 -18 -48 -18 -9 0 -90
-84 -124 -128 -11 -15 -41 -47 -68 -71 -26 -24 -47 -50 -47 -57 0 -7 -9 -15
-19 -19 -11 -3 -27 -22 -36 -41 -9 -20 -24 -44 -33 -54 -42 -44 -112 -139
-128 -173 -10 -20 -22 -37 -27 -37 -5 0 -7 -7 -3 -15 3 -8 2 -15 -3 -15 -4 0
-39 -48 -77 -107 -38 -58 -74 -111 -80 -117 -6 -6 -13 -18 -16 -26 -5 -14 -13
35 -22 150 -6 67 -28 167 -44 196 -6 12 -16 41 -22 65 -6 24 -13 53 -16 64 -4
17 -11 69 -13 98 -1 4 -11 7 -24 7 -20 0 -25 -8 -36 -52 -13 -55 -55 -152 -76
-178 -7 -8 -27 -49 -44 -90 -18 -41 -37 -86 -44 -99 -16 -31 -16 -263 -1 -282
6 -8 17 -39 25 -69 7 -30 19 -68 27 -84 21 -42 9 -69 -43 -94 -25 -12 -45 -26
-45 -32 0 -5 -7 -10 -15 -10 -8 0 -20 -10 -26 -22 -7 -13 -31 -48 -54 -78 -22
-30 -54 -81 -70 -112 -17 -32 -33 -58 -37 -58 -5 0 -8 -6 -8 -14 0 -7 -18 -33
-40 -56 -22 -23 -40 -46 -40 -50 0 -4 -14 -18 -32 -31 -44 -34 -89 -71 -110
-91 -16 -16 -31 -22 -49 -20 -3 1 -12 -10 -19 -24 -12 -21 -11 -26 5 -38 15
-11 23 -11 43 0 14 7 57 20 96 29 39 9 80 20 91 25 11 5 38 14 60 20 69 20
164 73 214 120 26 25 64 56 84 70 20 13 46 41 59 62 13 21 26 38 29 38 4 0 12
14 19 30 15 36 15 36 42 10 12 -11 28 -20 35 -20 7 0 13 -4 13 -9 0 -5 10 -13
23 -16 12 -4 36 -13 52 -20 17 -7 44 -17 60 -21 17 -4 33 -8 38 -9 4 -2 42 -3
85 -4 l77 -1 1 -243 c2 -363 12 -865 19 -927 4 -30 13 -75 20 -100 7 -25 18
-67 24 -95 7 -27 22 -63 34 -80 12 -16 33 -51 47 -76 32 -59 73 -109 134 -168
27 -25 67 -66 90 -91 117 -127 270 -268 285 -263 11 3 12 2 4 -4 -9 -6 3 -22
42 -55 30 -25 51 -48 48 -52 -4 -3 0 -6 8 -6 8 0 37 -24 64 -54 27 -30 82 -78
123 -108 70 -50 251 -193 262 -207 3 -3 23 -18 45 -34 22 -15 56 -41 75 -58
84 -75 120 -100 131 -93 7 4 9 3 6 -3 -5 -8 25 -43 38 -43 3 0 52 -32 111 -71
62 -41 111 -68 120 -65 8 3 13 2 10 -3 -3 -5 25 -28 62 -52 37 -24 72 -47 77
-52 39 -29 177 -121 209 -138 21 -11 44 -25 50 -30 31 -26 141 -91 157 -92 10
-1 16 -4 13 -8 -2 -4 10 -12 26 -19 17 -7 30 -16 30 -19 0 -4 15 -15 33 -24
36 -19 54 -30 110 -69 22 -16 45 -28 52 -28 7 0 22 -9 35 -20 13 -11 29 -20
36 -20 7 0 19 -6 26 -13 7 -7 29 -20 49 -29 19 -10 47 -29 63 -43 15 -14 31
-25 35 -25 5 0 11 -6 14 -14 3 -8 32 -34 63 -57 79 -58 98 -75 168 -144 71
-70 136 -146 136 -158 0 -4 4 -6 8 -3 5 3 9 -1 9 -8 0 -11 88 -144 104 -156 3
-3 14 -21 24 -40 10 -19 21 -37 24 -40 12 -9 101 -201 107 -229 4 -19 44 -122
59 -151 21 -41 66 -179 80 -247 15 -72 39 -107 49 -70 12 46 8 70 -32 187 -3
8 -6 20 -8 25 -2 6 -25 64 -52 130 -27 66 -59 150 -72 187 -12 38 -27 68 -31
68 -5 0 -8 4 -7 8 15 47 -381 600 -420 587 -7 -3 -11 -1 -8 4 3 4 -27 32 -66
61 -40 30 -97 76 -127 102 -31 27 -63 55 -71 62 -8 7 -31 19 -50 26 -19 8 -37
17 -40 20 -3 3 -18 12 -35 20 -50 25 -130 74 -133 82 -2 4 -9 8 -15 8 -7 0
-23 10 -37 23 -26 23 -86 60 -175 107 -29 15 -80 46 -114 69 -34 22 -67 41
-72 41 -5 0 -9 4 -9 9 0 5 -13 14 -30 21 -16 7 -30 16 -30 21 0 5 -5 9 -11 9
-6 0 -31 14 -55 30 -24 17 -64 44 -88 60 -24 17 -47 30 -50 30 -8 0 -163 103
-189 125 -29 25 -89 55 -99 49 -7 -4 -8 -2 -4 5 4 7 -5 18 -23 29 -17 9 -31
20 -31 25 0 4 -5 7 -10 7 -10 0 -22 10 -114 92 -22 21 -44 38 -47 38 -3 0 -17
10 -30 21 -13 12 -40 33 -59 48 -19 14 -42 33 -51 41 -9 8 -28 24 -43 34 -25
18 -49 37 -83 66 -7 5 -16 10 -21 10 -5 0 -54 42 -108 94 -113 108 -135 129
-264 246 -52 47 -119 112 -149 144 -31 32 -75 77 -99 100 -144 136 -173 169
-204 230 -11 23 -33 60 -49 82 -16 23 -26 44 -22 47 5 5 -2 31 -37 152 -12 41
-19 213 -27 635 -9 536 -6 607 29 572 16 -16 53 -15 67 2 7 8 9 25 5 40 -5 23
-11 26 -48 26 -54 0 -105 37 -245 178 -56 56 -106 102 -111 102 -6 0 -10 3
-10 8 0 4 27 5 60 4 44 -3 60 -8 60 -18 0 -32 100 -154 126 -154 6 0 17 -6 23
-14 17 -20 88 -56 95 -49 3 4 6 2 6 -4 0 -6 15 -14 34 -17 19 -4 39 -13 46
-21 7 -8 19 -15 26 -15 11 0 14 -21 14 -95 0 -57 4 -95 10 -95 6 0 10 -5 10
-11 0 -5 -4 -8 -9 -5 -10 7 -25 -160 -17 -195 3 -13 8 -146 11 -296 3 -149 7
-293 10 -320 3 -26 10 -93 15 -148 11 -124 21 -168 51 -224 24 -45 113 -142
179 -195 19 -16 66 -56 104 -89 73 -66 165 -137 176 -137 4 0 27 -16 51 -35
24 -19 49 -35 54 -35 9 0 46 -31 125 -103 44 -41 125 -97 139 -97 6 0 11 -4
11 -10 0 -5 7 -10 15 -10 8 0 15 -4 15 -8 0 -5 12 -15 28 -22 26 -13 39 -24
90 -70 12 -11 27 -20 32 -20 6 0 10 -3 10 -7 0 -5 14 -17 30 -28 16 -11 30
-24 30 -30 0 -5 20 -22 43 -38 23 -15 80 -54 127 -87 47 -34 109 -72 138 -86
28 -14 52 -30 52 -35 0 -5 5 -9 11 -9 5 0 24 -14 42 -31 36 -34 127 -97 172
-119 41 -20 172 -107 177 -118 5 -12 165 -132 177 -132 6 0 11 -4 11 -8 0 -5
12 -15 28 -23 30 -15 144 -90 152 -100 3 -4 14 -9 25 -13 11 -3 31 -16 45 -28
28 -25 67 -49 115 -72 17 -8 39 -24 50 -36 16 -18 89 -57 120 -64 14 -4 91
-24 150 -41 81 -22 117 -27 109 -12 -6 9 -4 9 8 0 8 -7 37 -16 64 -19 27 -3
58 -9 69 -14 52 -21 106 -32 133 -28 17 2 30 2 29 -1 -1 -3 0 -7 3 -8 3 -1 18
-6 33 -12 16 -6 52 -14 80 -17 29 -4 56 -9 61 -12 5 -2 34 -7 65 -9 31 -3 61
-9 66 -13 11 -9 91 -19 190 -25 62 -4 106 7 182 44 23 12 46 21 51 21 5 0 18
11 28 25 10 14 24 25 31 25 7 0 13 5 13 10 0 6 7 10 15 10 8 0 15 5 15 10 0 6
6 10 13 10 7 0 29 14 49 31 21 16 66 43 100 59 74 34 136 77 214 149 31 29 69
55 85 58 21 4 34 15 43 37 7 17 20 37 29 44 13 11 17 10 26 -7 6 -11 11 -25
11 -31 0 -7 6 -26 14 -43 22 -51 48 -139 52 -177 2 -19 8 -51 13 -70 34 -120
36 -266 7 -445 -2 -16 -7 -50 -11 -75 -11 -78 -41 -154 -141 -367 -13 -28 -24
-57 -24 -64 0 -7 -6 -20 -14 -28 -8 -9 -26 -47 -41 -86 -15 -38 -35 -81 -45
-95 -24 -36 -84 -175 -104 -240 -21 -70 -56 -244 -56 -279 0 -15 8 -31 20 -38
17 -12 20 -9 29 25 6 20 11 54 13 75 1 21 6 41 10 43 5 3 6 9 3 14 -3 5 -1 19
4 33 5 13 11 37 14 53 6 40 29 114 43 142 10 20 12 16 19 -40 22 -184 26 -336
10 -413 -17 -79 -81 -271 -109 -325 -10 -19 -24 -45 -30 -57 -6 -12 -21 -27
-33 -32 -13 -6 -23 -15 -23 -20 0 -4 -12 -8 -26 -8 -14 0 -40 -7 -57 -16 -18
-8 -70 -27 -117 -41 -47 -15 -100 -34 -118 -42 -18 -9 -43 -14 -55 -13 -30 2
-107 -12 -107 -20 0 -4 -8 -7 -17 -8 -10 -1 -34 -5 -53 -8 -19 -3 -55 -8 -80
-10 -25 -2 -81 -7 -125 -11 -103 -9 -495 -9 -560 0 -27 4 -61 11 -75 16 -30
10 -115 30 -150 34 -50 6 -105 19 -115 26 -8 6 -33 14 -75 25 -3 0 -30 7 -60
15 -30 7 -70 21 -88 32 -18 10 -39 18 -47 18 -9 0 -23 4 -33 9 -9 5 -37 19
-62 30 -25 11 -60 34 -79 50 -19 16 -46 35 -60 43 -14 7 -35 20 -46 30 -52 42
-130 104 -149 118 -38 27 -110 94 -171 160 -150 162 -209 219 -219 213 -6 -3
-8 -3 -4 2 7 7 -7 26 -86 115 -13 14 -51 59 -86 100 -35 41 -73 84 -85 96 -11
11 -40 44 -65 74 -25 29 -76 85 -113 124 -100 104 -109 116 -152 176 -38 55
-46 64 -110 132 -19 20 -35 43 -35 51 0 9 -3 17 -8 19 -4 2 -30 32 -57 68 -49
63 -80 101 -100 124 -14 15 -64 76 -97 117 -15 19 -53 65 -85 104 -61 72 -86
106 -127 166 -13 20 -31 42 -39 50 -7 8 -20 25 -27 38 -21 41 -127 184 -170
230 -22 25 -55 68 -72 95 -18 28 -49 71 -70 95 -21 24 -38 48 -38 53 0 10 -46
82 -78 122 -13 16 -37 56 -54 90 -17 34 -56 95 -88 136 -31 41 -69 95 -85 120
-15 25 -31 47 -35 50 -3 3 -17 28 -30 55 -13 28 -31 59 -40 70 -10 11 -23 43
-29 70 -7 28 -19 60 -27 73 -9 13 -13 29 -11 35 2 7 0 21 -6 32 -6 11 -14 36
-18 55 -4 19 -10 46 -14 60 -20 78 -30 265 -29 530 1 162 2 313 3 335 1 22 2
78 2 125 -1 76 7 544 12 755 1 68 -1 80 -15 83 -11 2 -19 -5 -22 -20 -20 -92
-38 -1449 -21 -1613 16 -166 50 -372 63 -389 5 -6 19 -39 30 -74 11 -34 35
-83 51 -108 17 -25 31 -47 31 -49 0 -4 60 -97 107 -165 10 -14 27 -34 38 -46
21 -22 33 -41 68 -107 21 -42 56 -97 68 -107 3 -3 29 -44 57 -91 29 -47 61
-94 73 -105 12 -10 41 -50 66 -89 25 -38 50 -74 56 -80 27 -23 106 -125 156
-202 30 -45 59 -79 64 -76 6 3 7 1 3 -6 -4 -6 3 -24 16 -40 13 -16 48 -62 78
-102 30 -40 73 -93 96 -119 22 -26 54 -64 70 -86 16 -21 39 -50 52 -64 12 -14
55 -68 95 -120 39 -52 77 -101 84 -108 7 -7 13 -16 13 -20 0 -4 19 -28 43 -54
23 -25 62 -72 87 -103 83 -104 138 -163 146 -157 4 4 4 2 0 -5 -4 -7 4 -22 20
-35 15 -13 41 -39 58 -57 17 -19 53 -58 79 -85 27 -28 49 -53 49 -56 1 -7 113
-139 190 -224 21 -22 38 -44 38 -48 0 -5 5 -8 11 -8 5 0 7 5 3 12 -4 7 -3 8 5
4 6 -4 9 -12 5 -17 -3 -6 36 -53 88 -106 266 -274 334 -337 351 -326 6 3 7 1
4 -4 -4 -6 5 -19 19 -29 15 -11 31 -24 38 -30 12 -11 124 -91 229 -161 34 -24
72 -43 84 -43 12 0 25 -5 29 -11 3 -6 19 -9 34 -7 19 3 26 0 23 -8 -3 -7 9
-15 29 -19 28 -6 78 -21 138 -43 23 -8 134 -33 207 -47 71 -13 84 -16 107 -25
13 -5 27 -6 30 -3 3 4 6 2 6 -4 0 -7 39 -11 103 -13 56 -1 119 -3 139 -5 21
-2 40 1 44 6 3 5 11 9 17 9 7 0 6 -4 -3 -11 -14 -9 190 -6 360 6 66 5 250 34
262 42 5 2 31 7 58 9 27 2 80 16 117 30 37 14 93 32 123 40 30 8 64 19 75 25
11 5 34 11 50 13 63 9 86 26 128 92 25 41 93 205 101 247 12 54 15 68 20 75
10 17 26 144 28 219 1 98 -21 383 -32 404 -5 10 3 39 25 85 67 143 95 205 131
291 20 48 46 106 57 128 34 66 37 74 37 93 0 10 4 22 8 27 9 10 27 103 37 185
3 25 8 56 10 70 22 115 12 278 -25 400 -5 19 -10 47 -10 63 0 15 -10 56 -21
90 -25 73 -41 207 -27 224 6 8 3 15 -12 23 -20 11 -21 16 -16 143 4 125 31
452 36 452 4 0 17 201 25 365 4 91 9 131 30 260 15 85 24 426 15 523 -3 38 -2
71 2 73 5 3 6 9 4 12 -2 4 -7 102 -10 217 -3 116 -3 203 1 195 3 -8 12 -19 19
-23 8 -4 14 -15 14 -22 0 -8 4 -15 8 -15 5 0 23 -14 41 -32 31 -30 56 -48 91
-64 8 -4 27 -16 42 -26 25 -18 216 -69 305 -82 32 -5 44 -2 51 10 7 12 -25 49
-139 165 -81 82 -153 149 -159 149 -6 0 -9 4 -6 9 4 5 20 2 39 -7 25 -13 59
-16 157 -15 166 2 189 13 340 161 63 62 130 123 147 135 60 41 33 90 -30 55
-25 -13 -26 -14 -82 -23 -22 -3 -46 -8 -53 -10 -7 -3 -63 -5 -125 -6 -68 0
-117 -5 -126 -12 -8 -7 -17 -11 -20 -10 -12 5 -77 -17 -101 -34 -14 -9 -57
-41 -96 -70 -86 -64 -116 -69 -54 -9 59 56 71 72 127 168 16 27 31 48 36 48 4
0 7 7 7 15 0 8 3 15 8 15 4 0 22 27 40 59 29 53 31 61 17 75 -14 14 -19 13
-53 -6 -20 -12 -44 -27 -52 -34 -16 -14 -114 -47 -217 -74 -24 -6 -43 -15 -43
-20 0 -5 -15 -16 -32 -23 -18 -8 -52 -35 -76 -61 -23 -25 -45 -46 -47 -46 -3
0 -5 24 -5 54 0 44 4 56 18 60 10 3 26 21 37 38 10 18 24 36 31 41 21 13 74
97 74 118 0 11 4 28 9 37 8 17 4 37 -49 222 -12 41 -30 116 -40 165 -19 89
-39 161 -82 300 -12 39 -21 73 -20 78 1 4 -2 7 -8 7 -5 0 -10 8 -10 18 0 10
-4 22 -9 27 -4 6 -21 46 -35 90 -15 44 -34 94 -41 110 -7 17 -23 57 -35 90
-12 33 -36 85 -53 115 -17 30 -31 58 -29 63 1 4 -1 7 -6 7 -4 0 -19 21 -32 47
-14 26 -33 56 -42 67 -10 11 -18 24 -18 29 0 10 -117 192 -172 266 -28 37
-266 281 -312 319 -8 6 -22 12 -30 12 -8 0 -18 5 -21 10 -3 6 -14 10 -23 10
-13 0 -125 49 -183 80 -9 5 -34 12 -55 15 -40 7 -94 22 -129 36 -207 81 -291
105 -450 129 -33 5 -91 16 -130 24 -89 19 -457 18 -578 -2z m568 -55 c55 -9
123 -17 152 -19 28 -2 49 -6 47 -9 -5 -8 32 -19 63 -19 29 0 170 -45 268 -85
44 -18 112 -40 150 -48 39 -8 84 -22 100 -31 17 -9 36 -16 43 -16 6 0 12 -4
12 -9 0 -12 90 -42 103 -34 5 3 7 1 3 -5 -3 -6 9 -15 31 -23 27 -8 71 -46 155
-133 65 -66 133 -137 153 -157 19 -20 35 -41 35 -46 0 -6 7 -16 15 -23 9 -7
22 -27 31 -45 8 -18 23 -41 32 -51 10 -11 35 -48 57 -84 21 -36 49 -82 62
-102 13 -21 23 -42 23 -47 0 -5 7 -14 15 -21 8 -7 24 -32 36 -56 12 -24 27
-40 32 -37 6 3 7 1 4 -4 -6 -9 19 -80 69 -198 6 -16 19 -48 27 -70 8 -22 24
-65 37 -95 12 -30 28 -75 35 -100 7 -25 22 -67 33 -95 10 -27 27 -85 37 -127
10 -43 21 -78 24 -78 3 0 7 -19 8 -42 1 -40 6 -60 39 -163 7 -23 17 -70 24
-105 6 -36 13 -78 16 -95 l6 -30 -30 30 c-27 27 -62 42 -172 72 -14 4 -77 8
-140 9 -63 2 -151 5 -195 8 -313 20 -356 19 -515 -10 -14 -2 -75 -6 -137 -8
-61 -2 -116 -7 -121 -10 -5 -3 -26 -8 -46 -11 -20 -3 -53 -8 -73 -11 -21 -3
-54 -7 -73 -9 -79 -7 -176 -27 -196 -40 -11 -7 -37 -16 -58 -19 -44 -7 -76
-23 -76 -37 0 -6 -5 -7 -11 -3 -12 7 -77 -19 -132 -55 -20 -13 -39 -22 -41
-20 -2 2 -7 33 -10 69 -4 36 -14 94 -22 130 -8 36 -22 97 -31 135 -9 39 -25
102 -36 140 -10 39 -23 87 -29 107 -7 24 -15 35 -22 31 -7 -4 -6 -1 1 9 7 8
11 17 9 19 -3 3 -7 16 -10 29 -3 14 -15 63 -27 110 -12 47 -31 121 -41 165
-18 70 -41 152 -79 275 -23 76 -116 288 -151 346 -51 85 -118 212 -118 224 0
11 -113 185 -139 213 -9 10 -25 28 -37 40 -12 12 -24 32 -28 44 -4 12 -20 33
-35 46 -16 13 -46 48 -67 78 -45 61 -78 99 -88 99 -4 0 -14 6 -22 14 -19 20
-12 21 156 41 25 3 61 10 80 15 19 4 58 11 85 14 28 3 82 12 120 20 39 8 124
15 189 15 66 1 121 2 122 4 8 8 182 -3 269 -16z m-1065 -135 c8 -9 38 -46 65
-81 28 -34 65 -81 83 -103 18 -23 38 -50 44 -62 6 -11 16 -26 22 -32 6 -6 22
-25 36 -43 14 -18 34 -43 45 -55 19 -20 56 -74 127 -186 19 -30 41 -72 47 -92
7 -21 17 -38 22 -38 5 0 12 -12 15 -26 4 -15 15 -35 25 -45 11 -11 19 -26 19
-34 0 -9 10 -32 23 -53 28 -44 87 -169 87 -182 0 -5 9 -29 19 -52 11 -24 25
-63 32 -88 7 -25 16 -49 20 -55 3 -5 9 -26 11 -45 5 -33 29 -132 79 -325 11
-44 31 -114 44 -155 13 -41 31 -111 40 -155 9 -44 20 -86 25 -95 4 -8 11 -40
15 -70 4 -30 9 -58 12 -62 2 -5 6 -30 7 -57 2 -26 7 -58 11 -70 7 -23 -6 -28
-27 -8 -18 18 -105 71 -153 94 -52 25 -119 64 -125 72 -18 23 -81 60 -94 55
-9 -3 -16 -1 -16 5 0 15 -54 159 -89 236 -50 111 -196 398 -225 444 -31 48
-125 164 -138 169 -5 2 -8 10 -8 17 0 8 -6 18 -14 22 -7 4 -21 24 -31 43 -10
19 -41 59 -70 90 -28 30 -62 71 -75 90 -13 19 -31 42 -40 50 -8 8 -29 36 -45
61 -32 49 -129 163 -205 239 -43 42 -62 55 -119 77 l-24 9 26 30 c15 16 43 49
63 74 20 25 59 71 87 103 29 32 57 67 62 76 6 9 39 43 75 75 36 32 88 81 117
107 57 53 71 58 93 31z m-527 -564 c28 2 117 -40 117 -56 0 -4 19 -28 43 -53
65 -71 147 -171 196 -239 33 -46 46 -58 53 -48 7 9 8 7 4 -7 -4 -15 7 -35 40
-73 25 -29 50 -50 55 -46 5 3 8 2 7 -3 -6 -21 60 -119 138 -203 43 -47 106
-143 143 -220 38 -78 61 -115 70 -113 5 1 7 -6 4 -16 -3 -13 2 -23 16 -31 12
-6 19 -14 17 -19 -6 -9 17 -78 43 -129 10 -21 21 -50 25 -65 4 -15 10 -26 14
-23 4 2 8 -3 9 -13 1 -9 13 -50 27 -91 14 -40 24 -75 22 -77 -2 -2 2 -24 10
-49 7 -24 11 -50 9 -57 -5 -17 -13 -84 -21 -178 l-7 -79 -36 0 c-50 0 -171
-40 -263 -87 l-77 -40 -76 30 c-42 16 -75 30 -73 32 2 2 23 5 48 8 25 3 73 12
108 21 34 10 71 18 82 19 11 1 20 5 20 9 0 4 6 8 13 8 7 0 30 9 52 20 22 11
42 20 46 20 4 0 24 8 45 17 22 9 41 17 44 18 27 5 70 39 70 55 0 27 -15 33
-80 31 -32 -1 -84 7 -121 18 -35 11 -86 23 -114 27 -27 3 -57 8 -65 9 -8 1
-61 -1 -118 -6 -116 -9 -189 -29 -232 -65 l-29 -25 -39 23 c-47 27 -92 60 -92
68 0 6 17 5 100 -4 53 -6 189 26 236 55 17 10 39 19 48 19 9 0 16 4 16 8 0 4
36 26 80 47 66 32 80 43 80 62 0 25 -3 26 -69 24 -24 0 -75 8 -113 19 -78 24
-249 34 -344 21 -33 -5 -89 -22 -125 -38 -49 -23 -74 -29 -106 -25 -24 2 -43
8 -43 13 0 5 -11 9 -25 9 -39 0 -30 15 11 18 19 1 44 7 54 12 10 6 29 10 42
10 13 0 32 7 42 15 10 8 42 22 70 31 28 9 94 41 147 70 52 30 103 54 112 54
39 0 25 57 -15 58 -13 1 -48 6 -78 12 -30 6 -70 14 -88 17 -18 3 -35 9 -38 14
-3 5 -21 9 -40 9 -20 0 -34 5 -34 12 0 9 -3 9 -12 0 -7 -7 -32 -12 -57 -12
-114 0 -247 -43 -351 -113 -52 -35 -54 -36 -81 -20 -25 15 -29 26 -11 29 29 4
112 45 112 56 0 4 6 8 13 8 7 0 38 22 68 48 29 27 65 57 78 68 13 10 37 31 51
46 15 14 46 38 69 52 63 40 49 80 -21 57 -18 -6 -51 -13 -73 -15 -321 -32
-443 -71 -538 -169 -29 -29 -61 -65 -72 -80 -19 -26 -55 -37 -55 -17 0 6 -7
10 -16 10 -9 0 23 38 73 88 86 84 149 161 248 306 42 62 45 70 31 84 -13 14
-19 13 -55 -11 -22 -15 -61 -32 -86 -39 -25 -7 -45 -16 -45 -20 0 -4 -8 -8
-17 -8 -10 0 -27 -7 -37 -15 -10 -8 -22 -12 -27 -10 -4 3 -10 1 -14 -5 -3 -5
-15 -10 -25 -10 -10 0 -20 -3 -22 -7 -1 -5 -30 -28 -62 -53 -105 -79 -182
-162 -219 -237 -36 -70 -36 -70 -84 -76 -26 -4 -59 -9 -73 -12 -25 -6 -25 -6
3 12 15 10 27 21 27 25 0 4 20 26 44 48 45 42 100 142 132 236 9 27 24 64 35
82 23 41 24 78 3 90 -22 12 -54 4 -48 -13 5 -13 -71 -92 -86 -88 -4 1 -26 -13
-48 -32 -22 -19 -44 -35 -49 -35 -5 0 -27 -13 -49 -30 -21 -16 -42 -30 -46
-30 -15 0 -117 -97 -150 -142 -16 -22 -17 -20 -1 27 9 28 19 52 23 55 7 5 10
16 30 105 6 28 15 58 20 67 14 26 12 75 -3 81 -18 7 -33 -4 -41 -29 -4 -12
-14 -30 -24 -40 -26 -29 -159 -144 -166 -144 -3 0 -19 -13 -34 -30 -33 -35
-56 -41 -25 -7 24 26 135 196 183 282 19 33 44 71 56 85 81 93 104 123 104
133 0 7 32 45 70 85 39 41 67 78 64 84 -4 6 -3 8 3 5 6 -4 30 18 54 48 37 46
62 65 89 70 3 0 24 13 46 27 97 62 210 96 339 103 50 2 104 7 120 10 17 3 71
13 120 21 50 9 121 23 158 30 37 8 71 13 75 11 4 -2 43 1 87 8 44 6 84 9 90 6
5 -3 22 -4 38 -3z m-1893 -602 c0 -13 6 -39 14 -58 12 -29 36 -116 52 -193 15
-74 -1 -229 -28 -259 -4 -6 -8 -17 -8 -25 0 -19 -43 -121 -50 -121 -3 0 -6 69
-5 154 0 85 -4 158 -8 163 -18 18 -31 -38 -33 -142 -4 -200 -20 -252 -48 -153
-10 35 -22 74 -27 86 -31 77 -32 213 -2 292 28 74 70 169 89 200 8 14 20 37
25 53 13 33 29 35 29 3z m1310 -203 c0 -5 -12 -21 -26 -38 -14 -16 -35 -45
-47 -65 -41 -66 -190 -220 -213 -220 -8 0 -14 -3 -14 -8 0 -7 -37 -25 -77 -37
-13 -3 -23 -3 -23 1 0 9 60 61 90 76 39 20 60 41 60 59 0 22 -28 32 -45 16 -8
-6 -26 -21 -41 -32 -14 -11 -48 -41 -75 -67 -27 -27 -51 -48 -54 -48 -2 0 1
13 8 29 34 80 204 227 327 283 36 16 79 35 95 43 37 17 35 17 35 8z m-534
-139 c-16 -40 -51 -95 -86 -138 -47 -57 -74 -79 -140 -114 -45 -24 -83 -42
-85 -40 -5 5 93 108 103 108 18 0 52 47 46 63 -13 35 -41 19 -131 -72 -29 -30
-56 -52 -59 -48 -10 10 104 143 148 173 24 16 51 36 61 44 10 8 21 15 25 15 4
0 21 10 39 23 17 12 36 22 42 22 6 0 11 4 11 8 0 9 42 32 49 26 2 -2 -9 -33
-23 -70z m-381 -31 c-13 -38 -30 -81 -37 -98 -23 -53 -93 -154 -105 -155 -7 0
-13 -4 -13 -10 0 -9 -75 -50 -93 -50 -5 0 16 24 47 53 42 39 56 59 56 80 0 35
-31 37 -50 2 -7 -13 -27 -35 -44 -47 -17 -13 -41 -34 -53 -47 -15 -15 -23 -19
-23 -10 0 34 177 229 265 291 5 4 24 19 40 32 17 14 31 26 32 26 1 0 -9 -30
-22 -67z m1325 -29 c-14 -10 -57 -46 -96 -81 -40 -35 -75 -63 -79 -63 -4 0
-19 -8 -33 -19 -15 -10 -47 -24 -72 -31 -25 -6 -52 -15 -60 -19 -13 -6 -94 -7
-150 -2 -22 2 61 50 88 51 12 0 22 5 22 10 0 6 8 10 17 10 24 0 83 23 83 32 0
4 7 8 16 8 24 0 12 34 -13 38 -12 2 -43 -8 -70 -21 -56 -29 -103 -41 -103 -28
0 16 60 52 135 82 11 4 38 10 60 13 22 3 72 12 110 19 39 7 93 14 120 15 50 2
50 2 25 -14z m255 -193 c-3 -5 21 -15 52 -22 32 -6 71 -15 88 -18 l29 -7 -44
-25 c-25 -13 -67 -33 -95 -43 -27 -9 -66 -26 -86 -37 -20 -10 -39 -16 -43 -12
-3 3 -6 2 -6 -4 0 -15 -152 -43 -180 -33 -11 4 -46 11 -69 15 -42 6 -49 25
-11 26 74 3 145 14 164 27 6 3 18 7 26 7 8 0 16 8 18 17 2 12 -6 20 -30 26
-18 5 -35 6 -38 2 -7 -10 -66 -22 -129 -26 -56 -4 -59 -1 -19 22 94 53 160 72
266 78 52 2 96 7 99 10 10 9 15 7 8 -3z m-862 -146 c55 -75 102 -177 98 -210
0 -3 12 -31 28 -62 45 -90 61 -133 50 -133 -6 0 -46 19 -89 41 -70 37 -120 79
-205 174 -53 58 -114 172 -120 220 -3 33 19 32 42 0 10 -14 30 -40 45 -58 15
-18 28 -35 28 -39 0 -4 14 -28 32 -52 26 -38 34 -43 50 -35 10 5 18 15 18 21
0 17 -129 208 -140 208 -17 0 -11 18 8 22 34 7 117 -45 155 -97z m-295 30 c18
-85 56 -160 117 -235 63 -77 123 -140 134 -140 4 0 16 -8 27 -17 19 -17 36
-28 82 -52 41 -23 151 -71 161 -71 6 0 16 -9 23 -20 15 -24 24 -25 44 -6 20
20 18 28 -17 72 -35 44 -119 217 -119 245 0 34 -66 174 -102 217 -32 37 -36
57 -10 47 9 -3 43 -8 74 -11 32 -2 67 -9 77 -16 22 -13 33 -66 25 -118 -3 -19
-1 -53 5 -75 5 -22 17 -69 26 -105 9 -36 23 -72 31 -81 8 -8 14 -21 14 -27 0
-27 96 -154 218 -289 74 -82 86 -91 104 -82 16 9 19 17 14 42 -4 17 -10 33
-15 37 -19 12 -41 144 -57 350 -8 102 -9 110 -19 133 -11 27 -3 28 44 5 31
-15 40 -25 36 -37 -11 -26 -18 -188 -10 -208 5 -10 10 -31 12 -48 5 -34 43
-147 52 -155 4 -3 12 -16 19 -30 23 -47 49 -85 86 -124 20 -22 36 -44 36 -49
0 -4 6 -5 13 -1 6 4 9 4 5 0 -4 -5 4 -26 18 -47 13 -21 24 -43 24 -49 0 -13
47 -13 55 -1 3 5 0 31 -6 58 -7 26 -13 116 -14 198 -1 83 -6 174 -10 203 -8
58 0 64 34 28 19 -20 22 -30 15 -58 -14 -61 -4 -246 15 -273 4 -5 13 -30 20
-55 7 -25 21 -61 31 -80 38 -72 180 -202 291 -265 29 -16 65 -42 80 -57 23
-24 28 -26 45 -13 17 12 18 16 5 37 -37 58 -65 127 -72 173 -4 28 -10 59 -13
70 -3 11 -13 54 -22 95 -8 41 -19 84 -24 95 -5 11 -11 33 -15 49 -6 26 -4 28
19 22 70 -17 71 -18 85 -112 7 -49 18 -95 23 -101 6 -7 8 -13 4 -13 -14 0 45
-98 89 -150 69 -80 96 -101 168 -135 l64 -30 -3 -135 c-7 -341 -4 -874 5 -883
5 -5 6 -19 2 -31 -5 -11 -7 -30 -4 -41 3 -19 3 -92 0 -268 -1 -45 2 -77 8 -77
6 0 4 -4 -3 -8 -9 -6 -11 -34 -7 -108 3 -54 7 -106 8 -114 2 -8 7 -37 11 -65
4 -27 10 -61 12 -75 3 -14 7 -74 10 -135 3 -60 7 -116 9 -122 3 -7 2 -13 0
-13 -7 0 -49 23 -55 31 -3 3 -23 16 -45 29 -22 13 -42 26 -45 29 -3 4 -18 13
-34 21 -17 8 -39 24 -51 35 -12 11 -32 28 -46 39 -13 10 -49 40 -79 66 -30 26
-75 57 -100 70 -25 12 -71 40 -102 61 -32 22 -60 39 -63 39 -6 0 -8 2 -65 51
-38 33 -176 129 -185 129 -11 0 -130 83 -138 97 -4 7 -13 13 -20 13 -7 0 -38
25 -70 55 -59 56 -218 175 -271 202 -16 8 -40 26 -53 39 -13 13 -27 24 -32 24
-4 0 -34 25 -67 56 -32 30 -93 78 -134 105 -41 27 -86 58 -100 69 -14 11 -31
20 -37 20 -7 0 -13 5 -13 10 0 6 -4 10 -9 10 -10 0 -51 33 -124 103 -27 26
-53 47 -56 47 -12 1 -107 95 -136 135 -49 66 -65 101 -65 143 0 21 -4 62 -10
90 -5 27 -10 68 -11 91 -2 22 -6 41 -9 41 -3 0 -6 21 -6 48 0 26 -4 142 -9
257 -10 238 -13 725 -4 730 3 2 16 -2 30 -9 14 -7 53 -18 88 -25 62 -12 72
-16 118 -39 13 -7 32 -12 43 -12 12 0 39 -9 61 -21 50 -25 72 -19 67 18 -2 18
-14 33 -39 47 -20 12 -53 41 -75 66 -21 25 -42 46 -46 48 -3 2 -26 29 -50 60
-24 31 -78 91 -120 132 -63 63 -87 79 -129 90 l-53 15 85 21 c46 12 102 21
124 20 l40 -1 13 -60z m602 -97 c0 -16 4 -28 8 -28 5 0 15 -19 22 -42 27 -89
43 -128 54 -128 7 0 7 -3 1 -8 -13 -10 -17 -32 -6 -32 5 0 13 -9 16 -20 7 -22
34 -28 36 -7 4 33 4 53 -2 62 -3 6 -14 37 -24 70 -9 33 -25 84 -36 114 -17 46
-17 52 -3 40 9 -7 26 -18 37 -24 12 -5 36 -35 53 -65 33 -55 39 -88 49 -245 3
-46 6 -73 21 -164 5 -32 4 -34 -12 -20 -24 19 -73 74 -101 113 -12 17 -26 36
-30 42 -8 10 -20 31 -54 91 -34 60 -58 167 -57 256 0 77 1 80 14 52 7 -16 13
-42 14 -57z m-816 48 c30 -12 166 -137 166 -153 0 -4 32 -41 82 -97 41 -45 48
-62 21 -51 -10 4 -45 13 -78 21 -56 13 -78 20 -130 40 -11 4 -25 6 -32 5 -6
-1 -14 3 -18 8 -8 14 -93 51 -115 51 -41 0 -220 148 -191 158 6 2 29 -6 51
-17 22 -11 40 -17 40 -13 0 4 4 3 8 -3 4 -5 30 -21 57 -34 28 -13 66 -31 85
-40 38 -19 70 -17 70 4 0 18 -47 54 -79 61 -14 3 -35 10 -46 16 -11 7 -38 21
-60 31 -35 17 -37 21 -20 27 33 12 147 4 189 -14z m-544 -34 c29 -13 87 -62
158 -132 61 -61 112 -113 112 -116 0 -2 -19 -4 -42 -4 -59 0 -160 33 -223 73
-22 14 -94 85 -96 95 -11 59 -6 59 56 1 67 -63 84 -76 116 -89 26 -11 32 -11
40 1 13 20 12 22 -27 49 -50 35 -154 132 -154 142 0 5 3 7 8 5 4 -3 27 -14 52
-25z m-164 -31 c-2 -21 -8 -46 -12 -54 -14 -24 -85 -105 -141 -162 -50 -51
-58 -80 -18 -73 18 3 82 61 107 97 7 10 30 37 51 61 40 48 64 45 51 -5 -9 -36
-96 -143 -136 -168 -18 -11 -54 -39 -79 -62 -52 -49 -114 -79 -213 -106 l-70
-18 45 44 c108 107 118 120 185 253 48 93 164 217 194 207 13 -4 22 -1 26 9
10 27 14 18 10 -23z m2414 -52 c46 -5 91 -16 99 -22 8 -7 16 -11 18 -9 7 5 33
1 33 -5 0 -10 -151 -82 -199 -96 -61 -17 -219 -14 -283 6 -91 28 -73 38 60 34
161 -5 217 2 217 28 0 15 -9 21 -37 26 -21 3 -38 2 -38 -2 0 -5 -47 -8 -105
-8 -58 0 -105 3 -105 8 0 13 51 33 105 41 75 11 141 11 235 -1z m2670 -64
c178 -5 227 -9 285 -26 39 -12 78 -25 87 -30 10 -5 24 -9 32 -9 8 0 19 -8 25
-17 7 -13 2 -27 -22 -58 -17 -22 -37 -43 -44 -48 -6 -4 -18 -14 -26 -22 -8 -8
-17 -12 -20 -9 -9 9 -19 -35 -12 -55 3 -11 8 -86 11 -168 6 -174 10 -270 19
-413 6 -81 10 -715 5 -715 0 0 -2 -36 -4 -80 -2 -44 -9 -98 -15 -120 -6 -22
-15 -143 -21 -270 -9 -197 -20 -342 -35 -445 -5 -37 -16 -139 -20 -190 -7 -96
-17 -166 -27 -184 -5 -10 -7 -33 -4 -51 10 -51 -7 -81 -63 -110 -28 -14 -57
-25 -66 -25 -9 0 -35 -10 -58 -22 -23 -13 -46 -23 -52 -23 -5 0 -15 -4 -21 -7
-14 -9 -61 -20 -103 -23 -18 -2 -38 -8 -44 -14 -6 -6 -25 -11 -42 -11 -18 0
-45 -6 -61 -14 -16 -8 -76 -24 -134 -35 -58 -12 -134 -28 -170 -36 -120 -27
-485 -36 -793 -19 -86 4 -152 3 -205 -6 -109 -17 -116 -18 -142 -8 l-23 8 7
178 c4 97 7 184 7 192 0 8 0 44 0 80 1 61 7 420 8 448 1 6 1 18 0 25 -2 34 12
381 16 386 7 12 24 314 29 543 2 42 7 83 13 90 6 7 13 67 17 133 4 66 13 154
20 195 8 41 12 78 9 83 -2 4 2 7 9 8 7 0 36 2 65 4 l51 3 1 -186 c1 -103 2
-203 2 -222 2 -124 -24 -546 -36 -590 -3 -8 -7 -62 -11 -120 -7 -124 -12 -189
-19 -250 -7 -64 -6 -451 2 -462 3 -6 23 -7 47 -3 22 3 59 8 81 11 22 3 76 11
120 19 44 8 132 19 195 26 63 6 129 13 145 15 47 5 228 34 245 39 8 2 44 7 80
11 36 3 92 10 125 15 33 5 119 16 190 24 140 16 186 22 226 30 14 2 68 7 120
9 96 5 129 11 129 27 0 5 11 9 24 9 22 0 25 5 30 58 13 109 14 139 21 367 9
311 11 330 19 343 4 7 4 16 1 22 -3 5 -1 27 4 47 6 21 13 106 15 188 3 83 8
197 13 255 10 154 6 863 -6 944 -11 76 -17 86 -52 90 -13 2 -53 9 -89 16 -68
13 -376 16 -420 4 -14 -4 -74 -10 -135 -14 -99 -7 -228 -22 -295 -35 -14 -3
-75 -12 -137 -20 -133 -19 -146 -21 -187 -34 -41 -13 -79 -21 -147 -31 -30 -4
-71 -12 -90 -19 -19 -6 -65 -19 -104 -30 -58 -15 -69 -21 -66 -37 10 -58 -4
-194 -22 -206 -6 -4 -31 -7 -54 -6 -41 1 -42 2 -41 35 1 18 -1 36 -4 39 -3 3
3 33 13 67 11 34 22 82 24 107 7 64 15 82 31 76 8 -3 14 1 14 10 0 18 23 44
39 44 26 0 84 43 73 54 -3 4 2 4 12 0 12 -5 17 -4 13 3 -4 6 3 8 19 5 15 -3
29 -1 33 4 3 6 31 16 61 23 30 8 64 20 75 27 16 10 82 20 187 28 3 1 10 4 14
9 4 4 30 7 58 7 28 0 75 7 105 14 29 8 99 15 156 15 56 0 110 3 119 7 32 12
163 22 246 18 47 -2 182 -6 300 -9z m-1831 -102 c19 -13 37 -23 42 -23 16 0
125 -69 163 -104 39 -34 39 -36 29 -71 -7 -20 -10 -42 -7 -49 3 -7 -6 -13 -23
-14 -68 -4 -244 -2 -300 4 l-63 6 0 39 c0 42 18 138 29 154 4 6 9 32 10 60 2
27 5 53 8 58 4 7 39 -11 112 -60z m-1338 -48 c6 -16 12 -39 14 -50 2 -11 18
-51 35 -90 30 -65 33 -68 47 -50 15 21 10 79 -9 102 -11 13 -37 93 -44 136
-12 66 69 -4 82 -72 4 -18 12 -35 18 -37 7 -3 11 -57 11 -167 0 -89 3 -170 8
-179 15 -34 -8 -16 -54 40 -86 106 -134 229 -146 380 -6 69 6 102 19 52 5 -19
14 -48 19 -65z m777 -44 c20 -6 72 -17 115 -26 42 -9 75 -20 72 -25 -7 -12
-134 -59 -208 -77 -68 -17 -197 -21 -265 -8 -76 14 -30 29 100 32 67 2 126 7
131 12 5 5 7 17 3 27 -6 15 -19 16 -129 10 -67 -3 -134 -8 -149 -10 -36 -5
-45 9 -16 26 27 14 28 14 92 28 27 5 51 12 53 14 9 8 166 6 201 -3z m2412 -10
c30 -1 73 -6 95 -13 46 -14 52 -15 64 -17 17 -2 32 -121 37 -296 6 -171 5
-179 -12 -163 -16 16 -18 15 -33 -3 -13 -16 -37 -21 -151 -29 -143 -11 -204
-16 -310 -26 -136 -14 -197 -19 -365 -29 -55 -3 -109 -7 -120 -10 -11 -2 -78
-7 -150 -10 -71 -3 -143 -8 -160 -10 -87 -12 -215 -17 -215 -7 0 5 10 12 23
16 12 3 48 25 78 48 31 24 68 52 83 63 15 11 39 30 54 42 14 12 39 28 54 34
54 22 44 89 -10 68 -76 -30 -347 -52 -379 -31 -16 10 -33 175 -19 189 7 8 120
34 227 53 58 11 118 24 135 31 16 6 56 15 89 19 33 5 92 13 130 19 94 13 141
19 265 31 58 5 148 14 200 20 52 5 129 13 170 17 41 5 95 5 120 1 25 -4 70 -7
100 -7z m750 -35 c0 -2 -19 -37 -42 -78 -80 -141 -199 -238 -293 -238 -25 0
-45 3 -45 6 0 4 17 21 37 38 21 17 58 50 84 73 25 24 49 40 52 37 10 -10 19
43 10 60 -6 12 -18 6 -60 -32 -100 -90 -133 -114 -133 -98 0 9 10 28 23 43 66
78 80 93 90 93 6 0 18 6 26 14 21 19 122 57 133 50 4 -3 14 -2 21 3 22 15 97
37 97 29z m-3578 -188 c20 -40 41 -86 47 -101 12 -31 37 -33 55 -4 8 14 8 20
-4 27 -8 5 -11 10 -7 10 4 0 -8 29 -28 65 -34 60 -35 65 -17 65 33 0 52 -11
52 -29 0 -10 16 -30 35 -45 33 -27 51 -66 70 -155 7 -32 12 -52 24 -96 5 -22
15 -62 21 -90 6 -27 15 -66 20 -84 5 -19 8 -37 6 -39 -10 -9 -122 74 -189 140
-66 64 -87 94 -87 121 0 4 -11 30 -26 59 -21 42 -27 70 -31 152 -6 119 2 120
59 4z m848 17 c3 -2 43 -5 89 -6 81 -3 109 -13 75 -26 -10 -4 -46 -24 -81 -45
-34 -21 -65 -38 -69 -38 -3 0 -20 -6 -37 -14 -51 -23 -108 -32 -170 -30 -57 3
-117 21 -117 36 0 5 -9 8 -20 8 -11 0 -20 5 -20 10 0 10 36 13 145 15 28 0 56
4 63 9 7 4 12 2 13 -6 0 -9 2 -10 5 -1 3 7 11 10 19 7 8 -3 16 4 20 17 9 27
-11 41 -45 33 -14 -3 -53 -8 -87 -9 -35 -2 -66 -6 -71 -9 -4 -2 -14 -1 -22 5
-12 7 -12 9 3 9 11 0 15 4 11 12 -4 6 -3 8 4 4 6 -3 23 -1 39 5 15 6 51 13 78
16 28 3 52 7 55 10 5 5 110 -6 120 -12z m3110 -76 c-47 -44 -102 -91 -122
-104 -47 -31 -137 -44 -241 -35 -96 8 -121 26 -51 35 102 13 258 68 251 89 -8
24 -40 20 -109 -15 -10 -5 -27 -9 -37 -9 -11 0 -23 -4 -26 -10 -3 -5 -30 -10
-58 -10 l-52 0 50 32 c124 80 135 83 300 93 90 5 156 13 164 21 2 2 7 1 10 -2
3 -3 -32 -42 -79 -85z m-2781 34 c-4 -21 -8 -39 -9 -40 0 -2 0 -23 0 -48 0
-34 -4 -45 -16 -45 -14 0 -97 -27 -194 -62 -19 -7 -56 -28 -82 -45 -41 -29
-50 -31 -76 -22 -21 7 -31 19 -36 39 -8 40 1 59 32 67 44 11 145 60 187 90 22
16 52 33 67 36 15 4 34 14 43 23 13 13 52 31 91 44 1 0 -2 -17 -7 -37z m-744
-198 c20 -30 41 -55 46 -55 4 0 15 -15 24 -32 37 -76 125 -147 125 -100 0 11
-12 35 -27 54 -16 20 -35 46 -43 58 -8 12 -32 43 -52 69 -47 57 -48 69 -2 42
19 -12 42 -21 50 -21 8 0 14 -6 14 -13 0 -7 13 -21 30 -30 16 -10 35 -28 41
-40 7 -12 15 -24 18 -27 13 -11 51 -70 51 -80 0 -5 9 -20 19 -32 55 -66 121
-152 117 -155 -6 -6 -110 19 -138 33 -15 8 -35 15 -45 17 -81 13 -239 193
-258 294 -2 15 -7 38 -9 51 -3 12 -4 22 -2 22 1 0 20 -25 41 -55z m2917 22
c15 -7 64 -48 110 -92 45 -44 86 -79 91 -77 5 1 6 -2 3 -7 -4 -5 19 -35 51
-65 35 -35 50 -56 40 -56 -9 0 -18 4 -21 8 -2 4 -19 9 -37 10 -37 3 -128 31
-147 45 -7 5 -30 19 -52 31 -62 33 -193 166 -178 181 6 6 78 -28 78 -37 0 -5
16 -23 36 -41 20 -18 47 -42 60 -55 13 -12 34 -26 48 -32 21 -8 26 -6 31 11 7
22 -19 59 -41 59 -6 0 -36 26 -64 58 -29 31 -60 60 -69 64 -12 5 -9 7 9 7 14
0 37 -5 52 -12z m-1692 -17 c-14 -11 -41 -33 -61 -49 -39 -32 -165 -99 -207
-110 -18 -5 -30 -3 -37 6 -13 18 -41 8 -48 -16 -4 -16 -17 -19 -101 -20 -61
-1 -96 2 -96 9 0 5 -3 9 -7 8 -19 -5 -123 14 -129 23 -10 17 0 20 88 30 45 4
95 10 110 13 31 5 88 45 67 47 -8 1 -21 2 -29 3 -8 0 -29 -4 -46 -11 -17 -6
-62 -11 -100 -9 -38 1 -81 -2 -96 -7 -44 -14 -56 -2 -18 18 19 11 40 20 45 21
6 1 37 12 70 25 55 20 81 22 319 26 143 2 262 6 265 8 2 3 11 5 20 5 12 -1 9
-6 -9 -20z m-830 -145 c8 -7 33 -18 55 -25 22 -7 42 -16 45 -19 11 -13 59 -29
127 -42 40 -7 69 -17 66 -22 -3 -4 -6 -32 -8 -60 -4 -94 -27 -272 -36 -282 -4
-6 -8 -28 -9 -50 -3 -182 -2 -244 5 -255 5 -9 4 -11 -3 -6 -8 5 -12 -3 -12
-26 1 -71 -9 -324 -13 -338 -13 -51 -17 -113 -22 -355 -3 -148 -7 -362 -10
-475 -3 -113 -8 -274 -9 -358 -2 -84 -7 -156 -10 -160 -4 -3 -19 2 -34 11 -15
10 -43 26 -62 35 -45 22 -70 43 -70 59 0 8 -11 30 -24 51 -18 28 -24 52 -25
101 -1 35 -3 67 -5 70 -2 3 -7 42 -10 86 -3 44 -11 96 -17 115 -17 53 -28
1184 -15 1490 1 36 3 95 4 133 2 70 9 79 50 58 41 -22 117 -39 124 -27 6 8 8
7 8 -1 0 -7 5 -13 12 -13 6 0 19 -7 29 -16 14 -12 22 -13 38 -4 32 17 25 34
-25 66 -25 16 -68 56 -95 89 -26 33 -55 68 -64 78 -8 9 -15 20 -15 24 0 3 -6
14 -13 22 -8 9 -23 32 -35 52 l-22 37 42 -15 c24 -8 50 -20 58 -28z m2190 -45
c11 -148 -9 -696 -30 -820 -6 -36 -13 -142 -17 -236 l-6 -172 -36 -5 c-20 -4
-65 -11 -101 -17 -36 -5 -87 -12 -115 -15 -27 -3 -63 -8 -80 -12 -35 -7 -42
-8 -200 -22 -66 -7 -142 -16 -170 -21 -27 -5 -81 -12 -120 -14 -38 -3 -81 -8
-95 -10 -29 -5 -117 -14 -210 -21 -80 -6 -113 -10 -266 -30 -66 -8 -148 -17
-181 -19 -33 -2 -66 -7 -73 -11 -31 -19 -39 34 -27 170 4 33 9 98 13 145 3 47
8 94 10 105 2 11 6 58 9 105 3 47 8 99 11 116 4 31 17 303 15 357 -1 94 -4
117 -12 117 -4 0 -6 6 -4 13 4 12 13 146 14 215 1 29 4 33 24 31 12 -2 27 0
33 3 13 8 171 25 364 38 74 5 153 12 175 14 63 7 182 16 285 21 52 3 120 8
150 12 30 3 61 5 69 4 7 -1 11 1 8 6 -3 4 47 8 111 9 97 1 303 12 309 18 1 0
32 1 70 1 l68 0 5 -75z m-136 -1298 c3 -5 23 -8 44 -8 34 1 39 -2 36 -19 -1
-11 -5 -66 -9 -123 -4 -84 -9 -106 -25 -122 -11 -11 -23 -20 -26 -20 -4 0 -12
-7 -18 -15 -13 -18 -176 -51 -313 -65 -109 -11 -146 -16 -213 -30 -25 -5 -52
-9 -60 -9 -43 -2 -107 -9 -120 -14 -19 -7 -200 -27 -260 -29 -8 0 -19 -4 -25
-8 -5 -4 -30 -8 -54 -9 -25 -1 -47 -4 -51 -6 -3 -2 -44 -6 -90 -10 -47 -3
-103 -10 -125 -15 -70 -16 -276 -33 -285 -24 -5 5 -10 57 -11 116 -1 59 -5
125 -9 147 -4 25 -4 38 2 34 6 -3 8 2 4 13 -12 40 -3 42 199 64 50 5 99 11
110 14 11 3 56 8 100 11 132 10 178 14 210 20 17 3 56 8 87 12 38 4 55 9 51
17 -4 6 1 5 10 -2 9 -8 20 -11 25 -8 5 3 52 10 103 16 52 6 110 12 129 15 129
15 301 33 499 50 30 3 57 7 59 10 8 8 20 6 26 -3z m-61 -1047 c-10 -13 -29
-29 -43 -35 -14 -6 -39 -23 -55 -38 -30 -27 -80 -58 -100 -62 -28 -6 -56 -22
-86 -48 -19 -16 -58 -41 -86 -57 -29 -15 -53 -32 -53 -37 0 -16 -129 -69 -167
-68 -40 0 -57 -2 -111 -14 -18 -4 -38 -4 -45 1 -7 5 -32 11 -57 12 -25 2 -49
6 -55 10 -5 4 -30 9 -55 10 -25 2 -49 6 -55 9 -5 3 -26 7 -45 9 -19 2 -60 8
-90 14 -30 6 -63 12 -72 12 -10 1 -18 5 -18 9 0 4 -9 8 -20 8 -10 0 -45 7 -77
16 -65 18 -131 30 -211 38 -29 3 -61 10 -71 16 -10 5 -21 7 -24 4 -3 -3 -12
-2 -19 2 -7 5 -15 9 -18 9 -22 4 -97 30 -104 37 -6 4 12 8 40 9 27 0 74 3 104
7 66 8 144 7 355 -3 284 -13 497 -5 615 21 36 8 79 17 95 18 46 5 145 26 174
38 14 5 37 11 51 13 14 2 45 11 70 19 25 8 70 20 100 25 30 6 73 14 95 19 51
11 59 6 38 -23z"/>
</g>
</svg>
